<mxfile host="app.diagrams.net" modified="2021-06-07T16:53:44.391Z" agent="5.0 (X11)" etag="l9VaZswpWsIaS5k2C6Un" version="14.7.3" type="github">
  <diagram id="ImWpfMLSMGcMEEKTHTEJ" name="Page-1">
    <mxGraphModel dx="1990" dy="1153" grid="1" gridSize="10" guides="1" tooltips="1" connect="1" arrows="1" fold="1" page="1" pageScale="1" pageWidth="850" pageHeight="1100" math="0" shadow="0">
      <root>
        <mxCell id="0" />
        <mxCell id="1" parent="0" />
        <mxCell id="E5qFBSlidN9A068RfuDA-3" value="" style="edgeStyle=orthogonalEdgeStyle;rounded=0;orthogonalLoop=1;jettySize=auto;html=1;curved=1;exitX=0.5;exitY=1;exitDx=0;exitDy=0;" edge="1" parent="1" source="E5qFBSlidN9A068RfuDA-1" target="E5qFBSlidN9A068RfuDA-2">
          <mxGeometry relative="1" as="geometry" />
        </mxCell>
        <mxCell id="E5qFBSlidN9A068RfuDA-5" style="edgeStyle=orthogonalEdgeStyle;curved=1;rounded=0;orthogonalLoop=1;jettySize=auto;html=1;exitX=0.5;exitY=1;exitDx=0;exitDy=0;" edge="1" parent="1" source="E5qFBSlidN9A068RfuDA-1" target="E5qFBSlidN9A068RfuDA-4">
          <mxGeometry relative="1" as="geometry" />
        </mxCell>
        <mxCell id="E5qFBSlidN9A068RfuDA-1" value="&amp;nbsp;&amp;nbsp; &lt;b&gt;Память&lt;/b&gt;" style="rounded=1;whiteSpace=wrap;html=1;fillColor=#dae8fc;strokeColor=#6c8ebf;align=left;" vertex="1" parent="1">
          <mxGeometry x="130" y="30" width="180" height="70" as="geometry" />
        </mxCell>
        <mxCell id="E5qFBSlidN9A068RfuDA-2" value="Физическая" style="whiteSpace=wrap;html=1;rounded=1;fillColor=#dae8fc;strokeColor=#6c8ebf;" vertex="1" parent="1">
          <mxGeometry x="255" y="160" width="120" height="60" as="geometry" />
        </mxCell>
        <mxCell id="E5qFBSlidN9A068RfuDA-4" value="Виртуальная" style="whiteSpace=wrap;html=1;rounded=1;fillColor=#dae8fc;strokeColor=#6c8ebf;" vertex="1" parent="1">
          <mxGeometry x="50" y="160" width="120" height="60" as="geometry" />
        </mxCell>
        <mxCell id="E5qFBSlidN9A068RfuDA-7" value="&lt;h1&gt;Операционная Система&lt;br&gt;&lt;/h1&gt;Выделяет каждой проге адресное пространство и низкоуровневый интерфейс для доступа к нему" style="text;html=1;strokeColor=none;fillColor=none;spacing=5;spacingTop=-20;whiteSpace=wrap;overflow=hidden;rounded=0;" vertex="1" parent="1">
          <mxGeometry x="55" y="315" width="330" height="90" as="geometry" />
        </mxCell>
        <mxCell id="E5qFBSlidN9A068RfuDA-11" style="edgeStyle=orthogonalEdgeStyle;curved=1;rounded=0;orthogonalLoop=1;jettySize=auto;html=1;exitX=0.75;exitY=1;exitDx=0;exitDy=0;startArrow=diamondThin;startFill=0;endArrow=none;endFill=0;startSize=15;" edge="1" parent="1" source="E5qFBSlidN9A068RfuDA-8" target="E5qFBSlidN9A068RfuDA-10">
          <mxGeometry relative="1" as="geometry" />
        </mxCell>
        <mxCell id="E5qFBSlidN9A068RfuDA-14" style="edgeStyle=orthogonalEdgeStyle;curved=1;rounded=0;orthogonalLoop=1;jettySize=auto;html=1;exitX=0.25;exitY=1;exitDx=0;exitDy=0;entryX=0.5;entryY=0;entryDx=0;entryDy=0;" edge="1" parent="1" source="E5qFBSlidN9A068RfuDA-8" target="E5qFBSlidN9A068RfuDA-12">
          <mxGeometry relative="1" as="geometry" />
        </mxCell>
        <mxCell id="E5qFBSlidN9A068RfuDA-16" value="&lt;div&gt;выдаёт &lt;br&gt;&lt;/div&gt;&lt;div&gt;приложениям&lt;/div&gt;" style="edgeLabel;html=1;align=center;verticalAlign=middle;resizable=0;points=[];" vertex="1" connectable="0" parent="E5qFBSlidN9A068RfuDA-14">
          <mxGeometry x="0.1571" relative="1" as="geometry">
            <mxPoint as="offset" />
          </mxGeometry>
        </mxCell>
        <mxCell id="E5qFBSlidN9A068RfuDA-8" value="ОС" style="whiteSpace=wrap;html=1;rounded=1;fillColor=#d5e8d4;strokeColor=#82b366;" vertex="1" parent="1">
          <mxGeometry x="570" y="180" width="120" height="60" as="geometry" />
        </mxCell>
        <mxCell id="E5qFBSlidN9A068RfuDA-15" style="edgeStyle=orthogonalEdgeStyle;curved=1;rounded=0;orthogonalLoop=1;jettySize=auto;html=1;exitX=0;exitY=0.5;exitDx=0;exitDy=0;entryX=1;entryY=0.5;entryDx=0;entryDy=0;startArrow=diamondThin;startFill=0;endArrow=none;endFill=0;startSize=15;" edge="1" parent="1" source="E5qFBSlidN9A068RfuDA-10" target="E5qFBSlidN9A068RfuDA-12">
          <mxGeometry relative="1" as="geometry" />
        </mxCell>
        <mxCell id="E5qFBSlidN9A068RfuDA-23" style="edgeStyle=orthogonalEdgeStyle;curved=1;rounded=0;orthogonalLoop=1;jettySize=auto;html=1;exitX=0.5;exitY=1;exitDx=0;exitDy=0;entryX=0.75;entryY=0;entryDx=0;entryDy=0;" edge="1" parent="1" source="E5qFBSlidN9A068RfuDA-10" target="E5qFBSlidN9A068RfuDA-18">
          <mxGeometry relative="1" as="geometry" />
        </mxCell>
        <mxCell id="E5qFBSlidN9A068RfuDA-10" value="Приложение" style="whiteSpace=wrap;html=1;rounded=1;fillColor=#d5e8d4;strokeColor=#82b366;" vertex="1" parent="1">
          <mxGeometry x="710" y="330" width="120" height="60" as="geometry" />
        </mxCell>
        <mxCell id="E5qFBSlidN9A068RfuDA-21" style="edgeStyle=orthogonalEdgeStyle;curved=1;rounded=0;orthogonalLoop=1;jettySize=auto;html=1;exitX=0.5;exitY=1;exitDx=0;exitDy=0;entryX=0.25;entryY=0;entryDx=0;entryDy=0;endArrow=block;endFill=0;dashed=1;" edge="1" parent="1" source="E5qFBSlidN9A068RfuDA-12" target="E5qFBSlidN9A068RfuDA-18">
          <mxGeometry relative="1" as="geometry" />
        </mxCell>
        <mxCell id="E5qFBSlidN9A068RfuDA-12" value="Интерфейс для доступа к памяти" style="whiteSpace=wrap;html=1;rounded=1;fillColor=#d5e8d4;strokeColor=#82b366;" vertex="1" parent="1">
          <mxGeometry x="420" y="330" width="120" height="60" as="geometry" />
        </mxCell>
        <mxCell id="E5qFBSlidN9A068RfuDA-18" value="Память" style="whiteSpace=wrap;html=1;rounded=1;fillColor=#d5e8d4;strokeColor=#82b366;verticalAlign=top;align=center;" vertex="1" parent="1">
          <mxGeometry x="500" y="460" width="260" height="110" as="geometry" />
        </mxCell>
        <mxCell id="E5qFBSlidN9A068RfuDA-19" value="&lt;div&gt;&lt;b&gt;Файловая&lt;/b&gt;&lt;/div&gt;&lt;div&gt;явно соответствует именам файлов. Для кода и т.п.&lt;br&gt;&lt;/div&gt;" style="rounded=0;whiteSpace=wrap;html=1;align=center;verticalAlign=top;" vertex="1" parent="1">
          <mxGeometry x="510" y="490" width="120" height="70" as="geometry" />
        </mxCell>
        <mxCell id="E5qFBSlidN9A068RfuDA-20" value="&lt;div&gt;&lt;b&gt;Анонимная&lt;/b&gt;&lt;/div&gt;&lt;div&gt;для переменных в стеке и т.п.&lt;br&gt;&lt;/div&gt;" style="rounded=0;whiteSpace=wrap;html=1;align=center;verticalAlign=top;" vertex="1" parent="1">
          <mxGeometry x="630" y="490" width="120" height="70" as="geometry" />
        </mxCell>
        <mxCell id="E5qFBSlidN9A068RfuDA-24" value="&lt;h1 style=&quot;font-size: 20px&quot;&gt;вытесняемая память&lt;br&gt;&lt;/h1&gt;&lt;p&gt;Приложение может потреблять больше памяти, чем есть даже физически. Тогда одна страница может вытяснять другую (pagefault)&lt;br&gt;&lt;/p&gt;" style="text;html=1;strokeColor=none;fillColor=none;spacing=5;spacingTop=-20;whiteSpace=wrap;overflow=hidden;rounded=0;align=left;verticalAlign=top;" vertex="1" parent="1">
          <mxGeometry x="55" y="440" width="290" height="100" as="geometry" />
        </mxCell>
        <mxCell id="E5qFBSlidN9A068RfuDA-27" value="" style="rounded=0;whiteSpace=wrap;html=1;align=center;verticalAlign=top;" vertex="1" parent="1">
          <mxGeometry x="230" y="35" width="70" height="40" as="geometry" />
        </mxCell>
        <mxCell id="E5qFBSlidN9A068RfuDA-29" value="" style="rounded=0;whiteSpace=wrap;html=1;align=center;verticalAlign=top;" vertex="1" parent="1">
          <mxGeometry x="220" y="45" width="70" height="40" as="geometry" />
        </mxCell>
        <mxCell id="E5qFBSlidN9A068RfuDA-28" value="страница обычно 4кб" style="rounded=0;whiteSpace=wrap;html=1;align=center;verticalAlign=top;" vertex="1" parent="1">
          <mxGeometry x="210" y="55" width="70" height="40" as="geometry" />
        </mxCell>
      </root>
    </mxGraphModel>
  </diagram>
</mxfile>
